<svg width="160" height="144" viewBox="0 0 160 144" fill="none" xmlns="http://www.w3.org/2000/svg">
<path opacity="0.1" d="M61.3891 136.531C58.4285 141.423 54.76 143.869 50.3835 143.869C47.6804 143.869 45.2991 142.839 43.2396 140.779C41.3088 138.848 40.3434 136.403 40.3434 133.442C40.3434 130.997 41.1157 128.422 42.6603 125.719L111.011 7.74708C113.714 2.85572 117.318 0.41004 121.823 0.41004C124.655 0.41004 127.036 1.4398 128.967 3.49933C131.027 5.43013 132.056 7.87581 132.056 10.8364C132.056 13.282 131.284 15.8564 129.739 18.5596L61.3891 136.531ZM36.2887 85.1722C25.2188 85.1722 16.5302 81.6324 10.2229 74.5528C4.04431 67.3445 0.955033 56.9181 0.955033 43.2738C0.955033 30.0157 4.10867 19.8468 10.416 12.7672C16.7232 5.55884 25.3475 1.95468 36.2887 1.95468C47.3586 1.95468 55.9829 5.55884 62.1614 12.7672C68.4687 19.8468 71.6223 30.08 71.6223 43.4669C71.6223 57.1112 68.4687 67.4732 62.1614 74.5528C55.9829 81.6324 47.3586 85.1722 36.2887 85.1722ZM36.2887 67.0227C40.279 67.0227 43.1752 65.2206 44.9773 61.6164C46.7794 58.0123 47.6804 51.9624 47.6804 43.4669C47.6804 35.3575 46.715 29.5008 44.7842 25.8966C42.9821 22.1637 40.1503 20.2973 36.2887 20.2973C32.4271 20.2973 29.5952 22.0994 27.7932 25.7035C25.9911 29.3077 25.09 35.2288 25.09 43.4669C25.09 51.8337 25.9911 57.8835 27.7932 61.6164C29.5952 65.2206 32.4271 67.0227 36.2887 67.0227ZM135.918 141.552C124.848 141.552 116.159 138.012 109.852 130.932C103.674 123.724 100.584 113.298 100.584 99.6532C100.584 86.2663 103.674 76.0331 109.852 68.9535C116.159 61.8739 124.848 58.3341 135.918 58.3341C146.859 58.3341 155.483 61.9382 161.791 69.1465C168.098 76.2261 171.252 86.4594 171.252 99.8463C171.252 113.362 168.098 123.724 161.791 130.932C155.612 138.012 146.988 141.552 135.918 141.552ZM135.918 123.402C139.908 123.402 142.805 121.6 144.607 117.996C146.409 114.392 147.31 108.342 147.31 99.8463C147.31 91.6082 146.344 85.6871 144.414 82.0829C142.611 78.35 139.78 76.4836 135.918 76.4836C132.056 76.4836 129.16 78.35 127.229 82.0829C125.427 85.6871 124.526 91.6082 124.526 99.8463C124.526 108.342 125.427 114.392 127.229 117.996C129.031 121.6 131.928 123.402 135.918 123.402Z" fill="white"/>
</svg>
